<?xml version="1.0" encoding="UTF-8"?>
<svg width="1920px" height="1080px" viewBox="0 0 1920 1080" version="1.1" xmlns="http://www.w3.org/2000/svg" xmlns:xlink="http://www.w3.org/1999/xlink">
    <!-- Generator: Sketch 42 (36781) - http://www.bohemiancoding.com/sketch -->
    <title>大网页</title>
    <desc>Created with Sketch.</desc>
    <defs>
        <linearGradient x1="50%" y1="0%" x2="50%" y2="100%" id="linearGradient-1">
            <stop stop-color="#24CAF3" stop-opacity="0.1" offset="0%"></stop>
            <stop stop-color="#24CAF3" stop-opacity="0.1" offset="100%"></stop>
        </linearGradient>
        <linearGradient x1="51.6162781%" y1="7.65373657%" x2="50%" y2="100%" id="linearGradient-2">
            <stop stop-color="#24CAF3" stop-opacity="0.1" offset="0%"></stop>
            <stop stop-color="#24CAF3" stop-opacity="0.1" offset="100%"></stop>
        </linearGradient>
    </defs>
    <g id="Page-1" stroke="none" stroke-width="1" fill="none" fill-rule="evenodd" stroke-opacity="0.66">
        <g id="大网页" stroke="#24CAF3">
            <g id="边框" transform="translate(12.000000, 11.000000)">
                <g>
                    <polygon id="Path" fill="url(#linearGradient-1)" points="3.82226562 37.296875 41.3808594 0 1896.46289 1.4921875 1896.46289 42.2505909 1882.67969 64.7558594 416.525341 64.7558594 382.882812 103.722656 141.279297 104.195312 121.605469 121.482422 48.9474983 121.482422 26.8554688 140.867188 26.8554688 352.077246 16.5644531 364.681641 16.5644531 116.898098 3 99.0976562"></polygon>
                    <polygon id="Path-2" points="16.15625 1 23.0703125 1 6.84179688 18.6210938 0 18.2734375"></polygon>
                    <polygon id="Path-3" fill="url(#linearGradient-1)" points="1749 94.2835487 1859.7815 94.2835487 1881.8125 118.337891 1881.8125 204.037515 1890.2168 192.687846 1890.2168 105.735986 1867.48081 83 1762.36236 83"></polygon>
                    <polygon id="Path-4" fill="url(#linearGradient-1)" points="1890.0212 214 1890.0212 335.324841 1886.61105 337.492188 1886.61105 414.284706 1890.40987 420.554688 1890.40987 662.3462 1884.23019 657.351562 1884.23019 558.63305 1874 548.402864 1874 495.945178 1880.47289 489.47229 1880.47289 226.587487"></polygon>
                    <polygon id="Path-5" fill="url(#linearGradient-1)" points="1886.87695 684.322266 1893.06641 672.988281 1893.06641 909.984375 1883.39063 919.408203 1882.67578 1028.02148 1886.58789 1032.36523 1886.58789 1048.12433 1877.14844 1056.97852 1060.55073 1056.97852 1052.70095 1049.12873 656.054629 1049.12873 646.414062 1042.1543 867.832137 1042.1543 880.576172 1037.57227 972.379818 1037.57227 978.232422 1044.17773 1487.25277 1044.17773 1494.05078 1037.31641 1565.68038 1037.31641 1574.66229 1046.29832 1802.6114 1046.29832 1817.63477 1034.2207 1847.19769 1034.2207 1874.875 1004.30273 1874.875 858.140164 1886.9945 846.020668"></polygon>
                    <polygon id="Path-6" fill="url(#linearGradient-2)" points="635.269531 1042.13672 623.594897 1053.81135 548.049508 1053.81135 538.642578 1048.07422 224.934732 1048.07422 212.058594 1057.04297 30.7851468 1057.04297 2.79518041 1029.053 2.79518041 515.291584 9.29882813 503.855469 16.8570042 503.855469 16.8570042 727.415297 11.4199219 741.355469 11.4199219 837.213793 18.296875 846.261719 18.296875 985.783598 42.8574219 1022.44141 73.6730292 1022.44141 88.71875 1039.7168 564.998535 1039.7168 570.398438 1036.46094 624.372559 1036.46094"></polygon>
                </g>
            </g>
        </g>
    </g>
</svg>